<svg xmlns="http://www.w3.org/2000/svg" viewBox="0 0 262.13 49.08"><defs><style>.cls-1{fill:#d0973c;}.cls-2{fill:#fff;}</style></defs><title>logo-cortiva-massage-h</title><g id="Layer_2" data-name="Layer 2"><g id="Layer_1-2" data-name="Layer 1"><path class="cls-1" d="M63.27,39.55V35.44L61.5,38.13h0L59.7,35.47v4.09H58.35v-6.3h1.5l1.66,2.66,1.66-2.66h1.5v6.3Z"/><path class="cls-1" d="M70.85,39.55l-.58-1.41H67.61L67,39.55H65.62l2.7-6.35H69.6l2.7,6.35Zm-1.91-4.68-.84,2h1.67Z"/><path class="cls-1" d="M75.42,39.64a4,4,0,0,1-2.67-1l.82-1a2.89,2.89,0,0,0,1.88.77c.57,0,.91-.23.91-.59v0c0-.35-.22-.53-1.27-.8-1.27-.32-2.09-.68-2.09-1.93v0a2,2,0,0,1,2.21-1.9,3.64,3.64,0,0,1,2.34.8l-.72,1a3,3,0,0,0-1.64-.62c-.53,0-.81.24-.81.55v0c0,.41.27.55,1.36.83,1.28.33,2,.79,2,1.89v0C77.73,38.94,76.78,39.64,75.42,39.64Z"/><path class="cls-1" d="M81.09,39.64a4,4,0,0,1-2.67-1l.82-1a2.89,2.89,0,0,0,1.88.77c.57,0,.91-.23.91-.59v0c0-.35-.22-.53-1.27-.8-1.27-.32-2.09-.68-2.09-1.93v0a2,2,0,0,1,2.21-1.9,3.64,3.64,0,0,1,2.34.8l-.72,1a3,3,0,0,0-1.64-.62c-.53,0-.81.24-.81.55v0c0,.41.27.55,1.36.83,1.28.33,2,.79,2,1.89v0C83.4,38.94,82.45,39.64,81.09,39.64Z"/><path class="cls-1" d="M89.16,39.55l-.58-1.41H85.92l-.58,1.41H83.93l2.7-6.35h1.28l2.7,6.35Zm-1.91-4.68-.84,2h1.67Z"/><path class="cls-1" d="M94.21,39.66a3.15,3.15,0,0,1-3.31-3.24v0a3.23,3.23,0,0,1,3.3-3.26,3.46,3.46,0,0,1,2.48.86l-.87,1.05a2.32,2.32,0,0,0-1.65-.64,1.89,1.89,0,0,0-1.81,2v0a1.89,1.89,0,0,0,1.91,2A2.22,2.22,0,0,0,95.56,38v-.9h-1.4v-1.2H96.9v2.74A4.09,4.09,0,0,1,94.21,39.66Z"/><path class="cls-1" d="M98.24,39.55v-6.3H103v1.23H99.61v1.28h3V37h-3v1.32H103v1.23Z"/><path class="cls-1" d="M109.82,34.53v5h-1.39v-5h-1.92V33.25h5.22v1.28Z"/><path class="cls-1" d="M116.74,39.55V37h-2.56v2.53H112.8v-6.3h1.39v2.49h2.56V33.25h1.39v6.3Z"/><path class="cls-1" d="M119.64,39.55v-6.3h4.75v1.23H121v1.28h3V37h-3v1.32h3.42v1.23Z"/><path class="cls-1" d="M129.49,39.55l-1.35-2h-1.09v2h-1.39v-6.3h2.88c1.49,0,2.38.78,2.38,2.08v0a2,2,0,0,1-1.35,2l1.54,2.25Zm0-4.15c0-.59-.41-.9-1.09-.9h-1.38v1.81h1.4c.68,0,1.06-.36,1.06-.89Z"/><path class="cls-1" d="M136.86,39.55l-.58-1.41h-2.66L133,39.55h-1.41l2.7-6.35h1.28l2.7,6.35ZM135,34.87l-.84,2h1.67Z"/><path class="cls-1" d="M141.72,37.66h-1.05v1.89h-1.39v-6.3h2.58a2.16,2.16,0,0,1,2.41,2.18v0A2.25,2.25,0,0,1,141.72,37.66Zm1.14-2.21c0-.62-.43-1-1.12-1h-1.07v1.93h1.1a1,1,0,0,0,1.1-1Z"/><path class="cls-1" d="M148.37,37v2.51H147V37.07l-2.42-3.82h1.62l1.5,2.53,1.53-2.53h1.58Z"/><path class="cls-1" d="M158.59,39.68l-.73-.74a2.84,2.84,0,0,1-1.85.7,1.89,1.89,0,0,1-2.12-1.83,1.83,1.83,0,0,1,1.22-1.74,2.13,2.13,0,0,1-.44-1.27,1.73,1.73,0,0,1,1.91-1.67,1.62,1.62,0,0,1,1.77,1.59A1.75,1.75,0,0,1,157,36.39l.84.84c.21-.32.41-.69.61-1.08l1,.56a11.71,11.71,0,0,1-.83,1.33l.93.93Zm-2.71-2.75a.94.94,0,0,0-.59.84.78.78,0,0,0,.88.75,1.49,1.49,0,0,0,.91-.36Zm.68-2.7a.6.6,0,0,0-.61.65,1.13,1.13,0,0,0,.37.79c.55-.21.84-.44.84-.85A.55.55,0,0,0,156.56,34.22Z"/><path class="cls-1" d="M165.56,39.64a4,4,0,0,1-2.67-1l.82-1a2.89,2.89,0,0,0,1.88.77c.57,0,.91-.23.91-.59v0c0-.35-.22-.53-1.27-.8-1.27-.32-2.09-.68-2.09-1.93v0a2,2,0,0,1,2.21-1.9,3.64,3.64,0,0,1,2.34.8L167,35a3,3,0,0,0-1.64-.62c-.53,0-.81.24-.81.55v0c0,.41.27.55,1.36.83,1.28.33,2,.79,2,1.89v0C167.87,38.94,166.91,39.64,165.56,39.64Z"/><path class="cls-1" d="M173.14,39.55l-2-2.68-.73.76v1.93h-1.39v-6.3h1.39V36L173,33.25h1.67l-2.57,2.67,2.68,3.63Z"/><path class="cls-1" d="M175.71,39.55v-6.3h1.39v6.3Z"/><path class="cls-1" d="M183.09,39.55l-3.05-4v4h-1.37v-6.3h1.28l3,3.88V33.25h1.37v6.3Z"/><path class="cls-1" d="M191.43,39.66a3.18,3.18,0,0,1-3.23-3.24v0a3.2,3.2,0,0,1,3.29-3.26,3.25,3.25,0,0,1,2.49,1l-.88,1a2.32,2.32,0,0,0-1.61-.71,1.87,1.87,0,0,0-1.83,2v0a1.87,1.87,0,0,0,1.83,2,2.27,2.27,0,0,0,1.66-.74l.88.89A3.22,3.22,0,0,1,191.43,39.66Z"/><path class="cls-1" d="M199.81,39.55l-.58-1.41h-2.66L196,39.55h-1.41l2.7-6.35h1.28l2.7,6.35Zm-1.91-4.68-.84,2h1.67Z"/><path class="cls-1" d="M206.05,39.55l-1.35-2h-1.09v2h-1.39v-6.3h2.88c1.49,0,2.38.78,2.38,2.08v0a2,2,0,0,1-1.35,2l1.54,2.25Zm0-4.15c0-.59-.41-.9-1.09-.9h-1.38v1.81H205c.68,0,1.06-.36,1.06-.89Z"/><path class="cls-1" d="M208.74,39.55v-6.3h4.75v1.23h-3.38v1.28h3V37h-3v1.32h3.42v1.23Z"/><path class="cls-1" d="M219.71,39.64a4,4,0,0,1-2.67-1l.82-1a2.89,2.89,0,0,0,1.88.77c.57,0,.91-.23.91-.59v0c0-.35-.22-.53-1.27-.8-1.27-.32-2.09-.68-2.09-1.93v0a2,2,0,0,1,2.21-1.9,3.64,3.64,0,0,1,2.34.8l-.72,1a3,3,0,0,0-1.64-.62c-.53,0-.81.24-.81.55v0c0,.41.27.55,1.36.83,1.28.33,2,.79,2,1.89v0C222,38.94,221.07,39.64,219.71,39.64Z"/><path class="cls-1" d="M226.18,39.66a3.18,3.18,0,0,1-3.23-3.24v0a3.2,3.2,0,0,1,3.29-3.26,3.25,3.25,0,0,1,2.49,1l-.88,1a2.32,2.32,0,0,0-1.61-.71,1.87,1.87,0,0,0-1.83,2v0a1.87,1.87,0,0,0,1.83,2,2.27,2.27,0,0,0,1.66-.74l.88.89A3.22,3.22,0,0,1,226.18,39.66Z"/><path class="cls-1" d="M233.81,39.55V37h-2.56v2.53h-1.39v-6.3h1.39v2.49h2.56V33.25h1.39v6.3Z"/><path class="cls-1" d="M239.77,39.66a3.23,3.23,0,0,1-3.34-3.24v0a3.35,3.35,0,0,1,6.7,0v0A3.26,3.26,0,0,1,239.77,39.66Zm1.91-3.26a1.91,1.91,0,0,0-1.91-2,1.88,1.88,0,0,0-1.89,2v0a1.91,1.91,0,0,0,1.91,2,1.88,1.88,0,0,0,1.89-2Z"/><path class="cls-1" d="M247.42,39.66a3.23,3.23,0,0,1-3.34-3.24v0a3.35,3.35,0,0,1,6.7,0v0A3.26,3.26,0,0,1,247.42,39.66Zm1.91-3.26a1.91,1.91,0,0,0-1.91-2,1.88,1.88,0,0,0-1.89,2v0a1.91,1.91,0,0,0,1.91,2,1.88,1.88,0,0,0,1.89-2Z"/><path class="cls-1" d="M252,39.55v-6.3h1.39v5h3.14v1.26Z"/><path class="cls-1" d="M259.82,39.64a4,4,0,0,1-2.67-1l.82-1a2.89,2.89,0,0,0,1.88.77c.57,0,.91-.23.91-.59v0c0-.35-.22-.53-1.27-.8-1.27-.32-2.09-.68-2.09-1.93v0a2,2,0,0,1,2.21-1.9,3.64,3.64,0,0,1,2.34.8l-.72,1a3,3,0,0,0-1.64-.62c-.53,0-.81.24-.81.55v0c0,.41.27.55,1.36.83,1.28.33,2,.79,2,1.89v0C262.13,38.94,261.18,39.64,259.82,39.64Z"/><path class="cls-2" d="M64.43,27c-4.18,0-7.21-2.85-7.21-6.77s3-6.77,7.21-6.77a6.05,6.05,0,0,1,5.85,3.6.21.21,0,0,1,0,.16.22.22,0,0,1-.11.12l-3,1.39-.09,0a.22.22,0,0,1-.2-.14,2.8,2.8,0,0,0-2.46-1.69,3.15,3.15,0,0,0-3.2,3.3,3.15,3.15,0,0,0,3.2,3.3,2.8,2.8,0,0,0,2.46-1.69.22.22,0,0,1,.2-.14l.09,0,3,1.38a.22.22,0,0,1,.11.12.21.21,0,0,1,0,.16A6.17,6.17,0,0,1,64.43,27Z"/><path class="cls-2" d="M78.78,27c-4.15,0-7.17-2.85-7.17-6.77s3-6.77,7.17-6.77,7.17,2.85,7.17,6.77S82.93,27,78.78,27Zm0-10.07a3.13,3.13,0,0,0-3.16,3.3,3.17,3.17,0,1,0,6.32,0A3.13,3.13,0,0,0,78.78,16.93Z"/><path class="cls-2" d="M95.62,26.76a.21.21,0,0,1-.2-.13l-1.69-3.86a.24.24,0,0,0-.22-.15H92.45a.24.24,0,0,0-.24.24v3.67a.21.21,0,0,1-.21.21H88.48a.21.21,0,0,1-.21-.21V13.88a.21.21,0,0,1,.21-.21h6.77A4.36,4.36,0,0,1,100,18.16,4.2,4.2,0,0,1,97.81,22a.24.24,0,0,0-.1.33l2.11,4.11a.21.21,0,0,1-.19.31Zm-3.17-9.88a.24.24,0,0,0-.24.24v2a.24.24,0,0,0,.24.24h2.19A1.33,1.33,0,0,0,96,18.07a1.25,1.25,0,0,0-1.31-1.19Z"/><path class="cls-2" d="M105.74,26.76a.21.21,0,0,1-.21-.21v-9.2a.24.24,0,0,0-.24-.24h-3.06a.21.21,0,0,1-.21-.21v-3a.21.21,0,0,1,.21-.21h10.54a.21.21,0,0,1,.21.21v3a.21.21,0,0,1-.21.21h-3a.24.24,0,0,0-.24.24v9.2a.21.21,0,0,1-.21.21Z"/><rect class="cls-2" x="115.3" y="13.67" width="3.94" height="13.09" rx="0.21" ry="0.21"/><path class="cls-2" d="M126.19,26.76a.22.22,0,0,1-.2-.14L121.32,14a.21.21,0,0,1,.2-.29h4a.21.21,0,0,1,.2.15l2.56,8a.24.24,0,0,0,.46,0l2.56-8a.21.21,0,0,1,.2-.15h4a.21.21,0,0,1,.2.29l-4.67,12.66a.21.21,0,0,1-.2.14Z"/><path class="cls-2" d="M144.58,26.76a.21.21,0,0,1-.21-.15L144,25.4a.24.24,0,0,0-.23-.17h-4.38a.24.24,0,0,0-.23.17l-.37,1.21a.21.21,0,0,1-.21.15h-4a.21.21,0,0,1-.2-.29L139,13.81a.22.22,0,0,1,.2-.14h4.68a.22.22,0,0,1,.2.14l4.67,12.66a.21.21,0,0,1-.2.29Zm-3-8.67a.24.24,0,0,0-.23.17l-1,3.22a.24.24,0,0,0,.23.32h2a.24.24,0,0,0,.23-.32l-1-3.22A.24.24,0,0,0,141.58,18.09Z"/><rect class="cls-2" x="155.74" y="13.67" width="3.94" height="13.09" rx="0.21" ry="0.21"/><path class="cls-2" d="M172,26.76a.22.22,0,0,1-.17-.09l-4.36-6a.24.24,0,0,0-.19-.1.24.24,0,0,0-.25.24v5.71a.22.22,0,0,1-.21.21h-3.51a.22.22,0,0,1-.22-.21V13.88a.22.22,0,0,1,.22-.21h3.75a.22.22,0,0,1,.17.09l4.08,5.56a.24.24,0,0,0,.19.1.24.24,0,0,0,.25-.24V13.88a.22.22,0,0,1,.21-.21h3.51a.22.22,0,0,1,.21.21V26.55a.22.22,0,0,1-.21.21Z"/><path class="cls-2" d="M184.34,27a8.74,8.74,0,0,1-5.93-1.94.22.22,0,0,1,0-.29l1.8-2.57a.21.21,0,0,1,.17-.09.22.22,0,0,1,.15.06,6.13,6.13,0,0,0,4,1.52c.92,0,1.47-.27,1.47-.72s-.79-.57-1.88-.76c-2.17-.38-5.44-.95-5.44-4.4,0-2.09,1.7-4.33,5.43-4.33a8.74,8.74,0,0,1,5.38,1.68.22.22,0,0,1,0,.3l-1.85,2.45a.21.21,0,0,1-.17.08.22.22,0,0,1-.13,0,6.67,6.67,0,0,0-3.68-1.17c-.69,0-1,.19-1,.61s.81.58,1.92.79c2.14.41,5.38,1,5.38,4.26C190,25.3,187.88,27,184.34,27Z"/><path class="cls-2" d="M195.08,26.76a.22.22,0,0,1-.21-.21v-9.2a.24.24,0,0,0-.24-.24h-3.06a.22.22,0,0,1-.21-.21v-3a.22.22,0,0,1,.21-.21H202.1a.22.22,0,0,1,.22.21v3a.22.22,0,0,1-.22.21h-3a.24.24,0,0,0-.24.24v9.2a.22.22,0,0,1-.21.21Z"/><path class="cls-2" d="M204.84,13.67h3.52a.21.21,0,0,1,.21.21V26.55a.22.22,0,0,1-.22.22h-3.51a.21.21,0,0,1-.21-.21V13.88A.21.21,0,0,1,204.84,13.67Z"/><path class="cls-2" d="M214.6,26.76a.22.22,0,0,1-.21-.21v-9.2a.24.24,0,0,0-.24-.24h-3.06a.22.22,0,0,1-.21-.21v-3a.22.22,0,0,1,.21-.21h10.54a.22.22,0,0,1,.21.21v3a.22.22,0,0,1-.21.21h-3a.24.24,0,0,0-.24.24v9.2a.22.22,0,0,1-.21.21Z"/><path class="cls-2" d="M230.22,27c-4.06,0-6.48-2.1-6.48-5.61v-7.5a.22.22,0,0,1,.22-.21h3.57a.22.22,0,0,1,.21.21v7.36a2.47,2.47,0,0,0,4.93,0V13.88a.22.22,0,0,1,.21-.21h3.57a.22.22,0,0,1,.22.21v7.48C236.68,24.95,234.33,27,230.22,27Z"/><path class="cls-2" d="M242.34,26.76a.22.22,0,0,1-.22-.21v-9.2a.24.24,0,0,0-.24-.24h-3.06a.22.22,0,0,1-.22-.21v-3a.22.22,0,0,1,.22-.21h10.54a.22.22,0,0,1,.21.21v3a.22.22,0,0,1-.21.21h-3a.24.24,0,0,0-.24.24v9.2a.22.22,0,0,1-.21.21Z"/><path class="cls-2" d="M251.7,26.76a.22.22,0,0,1-.21-.21V13.88a.22.22,0,0,1,.21-.21h9.5a.22.22,0,0,1,.21.21v3a.22.22,0,0,1-.21.21h-5.52a.24.24,0,0,0-.24.24v.84a.24.24,0,0,0,.24.24h5.38a.22.22,0,0,1,.21.21v3a.22.22,0,0,1-.21.21h-5.38a.24.24,0,0,0-.24.24v1a.24.24,0,0,0,.24.24h5.52a.22.22,0,0,1,.21.21v3a.22.22,0,0,1-.21.21Z"/><path class="cls-1" d="M10.22,35.74c-4.53,1.57-7.55-2.61-7.55-2.61,2.19,0,4-3,6-4s5.82.08,5.82.08S14.75,34.18,10.22,35.74Z"/><path class="cls-1" d="M14,17.77c-4.5,1.9-8.27,1.46-11.88-5.17C2.13,12.6,12.32,7.09,14,17.77Z"/><path class="cls-1" d="M13.78,2.48s2.13.11,2.81,1.08.26,3.13.26,3.13C13.37,6.57,13.78,2.48,13.78,2.48Z"/><path class="cls-1" d="M9.93,6.69s8.84-1.63,5.75,7.73C14.13,11.19,9.87,11.51,9.93,6.69Z"/><path class="cls-1" d="M38.91,42.52c-3.33-.34-8.87,4.09-10.13-2.2C28.78,40.32,35.34,35.35,38.91,42.52Z"/><path class="cls-1" d="M14.2,42.09c-1.82.3-5.21,1.86-6.76-3.65C7.44,38.44,12.84,35.49,14.2,42.09Z"/><path class="cls-1" d="M32.71,2.12c1,1.85,3,4.41-2.34,8.13C30.37,10.25,26.09,6,32.71,2.12Z"/><path class="cls-1" d="M17.5,44.84c.26-3.52-7-7.17,2.09-10C19.58,34.8,24.91,40,17.5,44.84Z"/><path class="cls-1" d="M41.65,10.51c1.78,2.55,3,5.33-3.21,9C38.44,19.56,35.26,13.85,41.65,10.51Z"/><path class="cls-1" d="M0,26.27c1.56-1.2,3.69-3.43,7.54.74C7.54,27,4.14,31.51,0,26.27Z"/><path class="cls-1" d="M32.42,37.24S35,30.86,44.06,34.31C41.94,43.9,37.24,36.27,32.42,37.24Z"/><path class="cls-1" d="M41.47,29.26a2.52,2.52,0,0,1-.75,2.21c-1,.69-3.45.43-3.45.43C37.71,27.65,41.47,29.26,41.47,29.26Z"/><path class="cls-1" d="M34.93,17.17C38,14,35.5,8.4,35.5,8.4c-.34,2-3.92,2.41-5.94,4.27-2.47,2.28-1.6,5.78-1.6,5.78A6.44,6.44,0,0,0,34.93,17.17Z"/><path class="cls-1" d="M46.33,24.17c2.94-4.47-.76-8.89-.76-8.89-.56,2.38-4.37,3.45-6,5.38s-1,6.26-1,6.26A6.74,6.74,0,0,0,46.33,24.17Z"/><path class="cls-1" d="M23,19.86c-.16,3.31-3.87,4.43-3.87,4.43s-2.84-2.36-2.71-4.4c.18-2.89,1.78-4.36,1.49-6.68C19.76,14.44,23.18,15.82,23,19.86Z"/><path class="cls-1" d="M13.48,27.43c-6.83-.72-5.18-4-7.12-7.85C14.29,20.14,13.48,27.43,13.48,27.43Z"/><path class="cls-1" d="M46.85,27.43c1.51,4.42-2.35,3.65-3.87,5.33C41.27,26.55,46.85,27.43,46.85,27.43Z"/><path class="cls-1" d="M25.47,15.26S12.94,12.34,20.88,0c0,0,6.93,2.82,7.07,7.61A11.43,11.43,0,0,1,25.47,15.26Z"/><path class="cls-1" d="M5.63,22s-3.5,2-4.1-3.55C3,18.4,5.63,19.31,5.63,22Z"/><path class="cls-1" d="M38.09,5.67s3.35,2.36.15,4.84C36.75,8.76,36,7.35,38.09,5.67Z"/><path class="cls-1" d="M17.92,31.27s2.35,2.46-2.93,4C14.15,33.85,15.52,30.73,17.92,31.27Z"/><path class="cls-1" d="M36.75,19.58c-.46,3.11.07,5.23-1.37,7.12-.9,1.18-4.81,2-6.71,4.32C28.67,31,24.07,19.05,36.75,19.58Z"/><path class="cls-1" d="M37.27,27.43c0,2.25-3.4,5.63-6.85,8.13a9.64,9.64,0,0,0-3.59,5.08l1,7.41s-3.13,2.31-5.88,0c0,0,1.09-8.74,1.07-10.16s.33-4.06-2.85-6.39c-5.68-4.15-6.53-9.33-6-11.47,0,0,3.4,7.3,6,8.42a5.68,5.68,0,0,1,1.2-3.35,11.28,11.28,0,0,0,.56,4.6,1.82,1.82,0,0,0,1.24,1.19,35.12,35.12,0,0,0,.63-14.71c3.94,2.58,2.59,19.27,2.59,19.27C28.94,31.67,32.48,32.89,37.27,27.43Z"/></g></g></svg>